HIERARCHY
ROOT hip
{
	OFFSET 0.000000 0.000000 0.000000 
	CHANNELS 6 Xposition Yposition Zposition Xrotation Zrotation Yrotation
	JOINT abdomen
	{
		OFFSET 0.000000 3.402643 0.000000 
		CHANNELS 3 Xrotation Zrotation Yrotation
		JOINT chest
		{
			OFFSET 0.000000 8.438565 -0.680529 
			CHANNELS 3 Xrotation Zrotation Yrotation
			JOINT neck
			{
				OFFSET 0.000000 10.207942 -0.272212 
				CHANNELS 3 Xrotation Zrotation Yrotation
				JOINT head
				{
					OFFSET 0.000000 3.130431 0.000000 
					CHANNELS 3 Xrotation Zrotation Yrotation
					End Site
					{
						OFFSET 0.000000 3.130435 0.000000 
					}
				}
			}
			JOINT lCollar
			{
				OFFSET 3.470700 6.669187 -0.816635 
				CHANNELS 3 Yrotation Zrotation Xrotation
				JOINT lShldr
				{
					OFFSET 3.198488 0.000000 0.000000 
					CHANNELS 3 Zrotation Yrotation Xrotation
					JOINT lForeArm
					{
						OFFSET 10.139888 0.000000 0.000000 
						CHANNELS 3 Yrotation Zrotation Xrotation
						JOINT lHand
						{
							OFFSET 8.370511 0.000000 0.000000 
							CHANNELS 3 Zrotation Yrotation Xrotation
							End Site
							{
								OFFSET 4.083176 0.000000 0.000000 
							}
						}
					}
				}
			}
			JOINT rCollar
			{
				OFFSET -3.470700 6.669187 -0.816635 
				CHANNELS 3 Yrotation Zrotation Xrotation
				JOINT rShldr
				{
					OFFSET -3.198488 0.000000 0.000000 
					CHANNELS 3 Zrotation Yrotation Xrotation
					JOINT rForeArm
					{
						OFFSET -10.139888 0.000000 0.000000 
						CHANNELS 3 Yrotation Zrotation Xrotation
						JOINT rHand
						{
							OFFSET -8.370511 0.000000 0.000000 
							CHANNELS 3 Zrotation Yrotation Xrotation
							End Site
							{
								OFFSET -4.083176 0.000000 0.000000 
							}
						}
					}
				}
			}
		}
	}
	JOINT lThigh
	{
		OFFSET 5.308129 -1.633274 1.361059 
		CHANNELS 3 Xrotation Zrotation Yrotation
		JOINT lShin
		{
			OFFSET -2.041588 -20.007561 0.000000 
			CHANNELS 3 Xrotation Zrotation Yrotation
			JOINT lFoot
			{
				OFFSET 0.000000 -19.190928 -1.224953 
				CHANNELS 3 Xrotation Yrotation Zrotation
				End Site
				{
					OFFSET 0.000000 -2.449906 4.627600 
				}
			}
		}
	}
	JOINT rThigh
	{
		OFFSET -5.308129 -1.633274 1.361059 
		CHANNELS 3 Xrotation Zrotation Yrotation
		JOINT rShin
		{
			OFFSET 2.041588 -20.007561 0.000000 
			CHANNELS 3 Xrotation Zrotation Yrotation
			JOINT rFoot
			{
				OFFSET 0.000000 -19.190928 -1.224953 
				CHANNELS 3 Xrotation Yrotation Zrotation
				End Site
				{
					OFFSET 0.000000 -2.449906 4.627600 
				}
			}
		}
	}
}
MOTION
Frames: 20
Frame Time: 0.033333
82.875351 51.558907 62.924732 8.496095 -7.324219 50.037815 26.009602 -12.962765 -4.024493 -21.376953 10.605469 6.884766 51.553619 8.070152 2.616707 -68.642578 -14.755858 0.283203 2.000000 -2.000000 0.000000 -88.916016 12.685546 -2.158203 -47.626411 -1.840708 -1.590253 -8.091780 50.023026 -11.145308 -2.000000 2.000000 0.000000 82.197266 -5.703125 18.242186 53.803867 1.316330 -2.159523 -9.393230 -56.912941 9.300186 -54.332520 7.352475 14.818741 42.791191 -4.345035 -4.157802 -5.954928 10.608782 4.507053 6.167886 -4.529474 -19.115868 11.841785 5.239084 0.927719 -6.963488 -8.898236 2.220190 
84.306305 51.360497 63.561855 8.486328 -7.480468 50.194042 26.521738 -12.788518 -3.985844 -21.738281 10.273438 6.954867 51.553619 8.070152 2.616707 -70.800781 -14.414061 0.292969 2.000000 -2.000000 0.000000 -90.117188 12.285156 -3.886719 -47.094257 -1.851543 -1.775730 -8.736144 51.035690 -13.129404 -2.000000 2.000000 0.000000 81.591797 -5.625000 18.916014 53.610676 1.475889 -1.876189 -9.548429 -57.051182 9.385875 -54.163200 7.018810 14.658616 45.097218 -4.192218 -4.355901 -5.953990 11.437261 4.693473 7.595251 -5.067895 -20.100983 11.130846 5.327766 1.371373 -4.847114 -8.497518 1.684096 
85.734825 51.457260 64.198547 8.330079 -7.675781 50.526039 27.056850 -12.528768 -4.092425 -22.099609 10.097657 6.865236 51.553619 8.070152 2.616707 -72.939453 -14.042966 0.468750 2.000000 -2.000000 0.000000 -91.259766 11.699220 -4.597628 -47.102966 -1.712208 -1.734987 -10.960312 50.827831 -14.088030 -2.000000 2.000000 0.000000 81.230469 -5.722657 19.540041 53.259644 1.477028 -1.895679 -9.311495 -57.517719 8.639707 -52.767624 6.481940 14.641938 45.454296 -4.309703 -4.084974 -4.892763 11.632332 4.813312 9.084954 -5.622618 -20.025936 10.599495 5.335375 1.132413 0.904088 -8.384470 1.474150 
87.155830 51.559464 64.834869 7.978516 -7.675781 50.917969 27.427443 -12.521927 -4.110712 -22.275391 10.283203 6.689453 51.553619 8.070152 2.616707 -74.726563 -13.720702 0.712890 2.000000 -2.000000 0.000000 -92.675781 11.464843 -4.404297 -47.455589 -1.851543 -1.775730 -13.945811 49.601963 -13.830945 -2.000000 2.000000 0.000000 80.683594 -6.699219 19.716799 53.101025 1.307149 -2.169836 -8.076147 -57.692402 7.304655 -50.826622 6.122005 14.750801 45.622013 -4.306606 -4.078881 -4.233863 11.958791 4.999490 10.732835 -5.768794 -20.281826 8.853312 5.609363 0.990521 7.722955 -8.062812 0.427443 
88.345993 51.568569 65.416931 7.617188 -7.675781 51.337891 27.792118 -12.672258 -4.211143 -22.451174 10.468750 6.318359 51.553619 8.070152 2.616707 -76.494141 -13.369139 0.996094 2.000000 -2.000000 0.000000 -92.900391 10.751953 -2.713020 -47.982651 -1.860722 -1.765415 -14.814841 48.581036 -11.645492 -2.000000 2.000000 0.000000 80.273438 -7.695312 19.755859 52.920479 1.296918 -1.994416 -6.457317 -58.120224 5.711049 -48.720581 5.742641 15.021609 45.471413 -4.186360 -4.357210 -4.224948 12.550570 5.578018 12.525466 -6.015250 -21.293886 6.711910 5.352556 0.764742 15.684117 -5.911780 -1.436836 
89.701157 52.045532 66.171860 7.070312 -7.685546 51.914063 27.967640 -12.668839 -4.220286 -22.792969 10.830078 6.123047 51.553619 8.070152 2.616707 -77.910156 -13.105467 1.484375 2.000000 -2.000000 0.000000 -91.064453 10.156250 0.761719 -48.158413 -1.870472 -1.764844 -12.048895 47.521687 -7.275096 -2.000000 2.000000 0.000000 79.814453 -8.974609 20.076603 52.543907 1.607819 -1.790262 -5.764998 -58.321224 4.795560 -46.053120 5.370866 15.120788 45.097767 -4.189334 -4.345816 -5.982467 11.765903 5.895776 7.468221 -9.071133 -21.692556 13.598713 5.092244 1.421535 37.513081 -2.043008 -4.613742 
91.121475 52.101364 66.996819 6.728516 -7.685547 52.490234 28.022430 -12.500193 -4.530182 -22.792969 11.181641 5.810547 51.553619 8.070152 2.616707 -78.759766 -12.763671 2.097452 2.000000 -2.000000 0.000000 -88.544922 9.775391 5.431347 -48.334156 -1.889969 -1.763704 -7.719049 46.698715 -1.605108 -2.000000 2.000000 0.000000 79.384758 -10.302735 20.312502 52.381012 1.467848 -1.905994 -4.156609 -58.616562 3.504872 -42.900738 5.010432 15.225305 44.062515 -4.271553 -4.259603 -7.417410 10.858492 6.109044 11.204916 -8.688691 -22.451948 4.597727 5.256552 0.524606 57.855194 -0.590465 -8.008168 
92.628822 53.229523 67.864349 6.025391 -7.529296 53.154297 27.889130 -12.076431 -4.904740 -22.958986 11.357421 5.791016 51.553619 8.070152 2.616707 -77.812500 -12.636718 3.161926 2.000000 -2.000000 0.000000 -86.035156 9.335938 10.058594 -48.685699 -1.899719 -1.763133 -4.984033 45.465809 2.056958 -2.000000 2.000000 0.000000 79.179688 -11.777344 20.214844 52.192360 1.598070 -1.790831 -3.247627 -58.848057 2.445799 -39.000870 4.637341 15.324227 42.121403 -4.523874 -3.797519 -8.578434 9.571255 6.403849 7.320304 -9.616175 -21.726093 12.005336 5.120576 1.077535 59.798088 -2.907583 -9.322287 
94.193092 54.517456 68.768227 5.478516 -7.363281 53.924530 27.786835 -11.569609 -5.446479 -23.134766 11.542970 5.605470 51.553619 8.070152 2.616707 -75.205078 -12.460937 4.421721 2.000000 -2.000000 0.000000 -84.033203 8.984374 14.570312 -49.045666 -1.790626 -2.072959 -5.964730 44.867207 1.456495 -2.000000 2.000000 0.000000 79.882813 -13.281251 19.277344 52.029713 1.468417 -1.915739 -3.472179 -59.219784 2.716053 -34.764111 4.267303 15.570163 38.944447 -4.734643 -3.891890 -9.109482 8.919017 6.666888 1.893701 -10.566271 -20.820652 21.892645 5.034927 2.097614 49.341408 -8.084800 -8.239268 
95.779800 55.940571 69.666656 4.931640 -7.207031 54.726563 27.653608 -10.921526 -5.889945 -23.300783 11.894532 5.429688 51.553619 8.070152 2.616707 -72.441406 -12.265623 5.009766 2.000000 -2.000000 0.000000 -81.933594 8.085938 18.623045 -49.393513 -1.929467 -1.937410 -8.367069 44.097408 -1.645588 -2.000000 2.000000 0.000000 80.781250 -15.048828 17.109377 51.853916 1.478166 -1.915171 -4.023847 -59.328991 3.146082 -29.983458 3.668663 16.048672 35.073338 -4.650197 -3.249477 -9.022408 7.354505 6.529680 -3.740440 -11.411647 -19.640997 32.627888 4.672924 2.961305 35.215298 -13.595187 -7.000984 
97.378426 57.344315 70.541245 4.228516 -7.021484 55.517582 27.540375 -10.175641 -6.485030 -23.476563 12.070313 5.236417 51.553619 8.070152 2.616707 -70.175781 -11.787108 4.423828 2.000000 -2.000000 0.000000 -80.039063 6.953125 21.993370 -49.572727 -1.799806 -2.062646 -10.084702 44.214111 -3.371688 -2.000000 2.000000 0.000000 81.992188 -16.435545 14.892577 51.853901 1.487915 -1.914602 -5.277367 -59.861706 4.055406 -25.028236 2.978493 15.920044 29.954948 -4.937856 -3.297238 -7.641665 6.536799 6.621648 -8.474430 -12.579888 -18.791246 41.235069 4.140087 3.729302 24.708315 -16.799334 -6.558072 
98.932068 59.302662 71.349991 3.710938 -6.845703 56.287899 27.261158 -9.688561 -7.002435 -23.466799 12.246094 5.077947 51.553619 8.070152 2.616707 -67.519531 -10.986327 3.339844 2.000000 -2.000000 0.000000 -78.437500 5.351563 24.111328 -49.744793 -1.938647 -1.927094 -10.317886 43.689518 -4.114172 -2.000000 2.000000 0.000000 83.251953 -17.822266 12.829043 51.853901 1.487915 -1.914602 -6.398022 -59.877789 5.629266 -20.077229 2.353399 15.395516 24.482594 -5.297086 -2.612248 -7.000488 5.918934 6.386759 -11.344706 -14.484331 -17.839779 46.837975 3.544373 3.863685 21.509741 -15.694048 -5.324881 
100.443687 60.008293 72.111183 3.183594 -6.669922 57.069180 26.951097 -9.031590 -7.444633 -23.642578 12.431641 4.882813 51.553619 8.070152 2.616707 -64.873047 -10.126952 2.041015 2.000000 -2.000000 0.000000 -77.216797 3.632813 25.419922 -49.907799 -2.118184 -1.818806 -9.541965 43.797546 -3.712615 -2.000000 2.000000 0.000000 84.804688 -18.623047 10.322265 51.827248 1.668080 -1.649844 -6.658189 -59.977127 5.675151 -14.864967 1.676055 15.174872 18.657331 -5.462560 -1.859262 -5.227854 4.431728 6.387572 -13.212142 -16.960701 -17.565237 50.346905 3.261577 4.294120 20.004063 -12.245898 -3.656716 
101.904259 60.543106 72.846565 2.460938 -6.347656 57.880859 26.629898 -8.611705 -7.812610 -23.642576 12.607422 4.904475 51.553619 8.070152 2.616707 -62.617188 -9.365234 0.603896 2.000000 -2.000000 0.000000 -77.050781 2.871094 25.371092 -50.083576 -2.118184 -1.818806 -9.508391 43.220917 -3.760430 -2.000000 2.000000 0.000000 85.703125 -19.462891 8.876952 52.030193 1.498803 -1.933524 -7.495419 -59.797474 6.881754 -9.974704 1.061816 14.355074 12.286116 -5.674110 -1.559412 -2.720933 3.994554 5.890075 -13.923039 -18.048883 -18.080627 50.170029 3.300504 4.268384 18.901423 -10.096464 -3.134759 
103.164192 60.884014 73.473190 1.933594 -6.162109 58.652344 26.501587 -8.431256 -8.127520 -23.457033 12.587890 4.931641 51.553619 8.070152 2.616707 -60.917973 -8.662108 -0.703125 2.000000 -2.000000 0.000000 -77.939453 2.607422 23.603960 -50.631939 -1.768929 -1.868572 -9.414955 42.399456 -3.970787 -2.000000 2.000000 0.000000 85.566406 -20.126953 8.759767 52.192577 1.627886 -1.798871 -7.347025 -59.776833 6.620090 -5.888578 1.201296 13.306968 8.253224 -6.265382 -1.207770 -0.566096 4.209165 5.520640 -14.120316 -17.263395 -19.345501 47.371746 3.505652 4.083841 16.773174 -10.122732 -3.591361 
104.048157 61.138710 73.989754 1.406250 -5.996094 59.403275 26.178852 -8.266818 -8.427626 -23.271486 12.763672 4.814454 51.553619 8.070152 2.616707 -59.814461 -8.261718 -1.816407 2.000000 -2.000000 0.000000 -79.208984 2.509766 20.996096 -50.980019 -1.948884 -2.102843 -9.379301 40.953575 -3.817429 -2.000000 2.000000 0.000000 84.960938 -20.488279 9.667969 52.368355 1.627887 -1.798871 -7.491507 -60.217415 6.980435 -4.469868 1.345696 12.110408 8.249085 -5.888361 -1.196301 0.973543 4.461886 4.510992 -14.382087 -16.164642 -21.157745 43.520153 3.964328 3.709531 14.695025 -10.142146 -4.425325 
104.800331 61.233479 74.529449 1.044922 -5.644531 60.156250 26.012192 -8.431246 -8.490542 -23.105469 12.587891 4.833985 51.553619 8.070152 2.616707 -59.433594 -7.949218 -2.636719 2.000000 -2.000000 0.000000 -80.244141 2.001953 18.720703 -51.690842 -1.778034 -2.024800 -9.285287 39.565662 -4.007988 -2.000000 2.000000 0.000000 84.990234 -20.937500 10.084403 52.381493 1.498234 -1.923779 -7.485801 -60.402935 6.942649 -4.182630 2.005903 10.833970 11.236439 -5.800063 -1.466868 1.137232 4.498751 3.215997 -14.167615 -14.739890 -23.103912 38.785175 4.413463 3.045006 12.619061 -10.291312 -5.001872 
105.859612 61.143566 75.196449 0.703125 -5.458984 60.898438 25.669914 -8.671589 -8.406347 -22.744141 12.569099 4.923399 51.553619 8.070152 2.616707 -59.228519 -7.802735 -3.564453 2.000000 -2.000000 0.000000 -81.523438 1.923828 15.781579 -52.209923 -1.967246 -2.082215 -9.260568 38.373867 -4.175141 -2.000000 2.000000 0.000000 84.951172 -21.201172 9.976938 52.381493 1.498234 -1.923779 -6.596476 -60.650612 6.449229 -3.231987 2.265193 8.584341 12.858787 -6.171788 -1.539203 -0.555613 5.429599 2.738652 -13.836026 -12.993105 -25.181129 33.489784 4.735567 2.450042 10.526231 -10.110713 -6.680036 
107.051727 60.959118 76.006813 0.351563 -5.273432 61.629986 25.290947 -9.183027 -8.239367 -22.392576 12.392579 4.982565 51.553619 8.070152 2.616707 -59.208984 -7.626952 -4.473952 2.000000 -2.000000 0.000000 -82.460938 2.041015 13.818707 -52.736996 -1.966677 -2.072470 -9.951870 37.219486 -4.411062 -2.000000 2.000000 0.000000 85.253906 -21.318363 10.064809 52.381756 1.498803 -1.933524 -6.159722 -61.009224 6.359603 -2.115077 2.620656 6.979356 14.624543 -5.929803 -1.861417 -3.368784 5.926928 2.429488 -13.602229 -11.354179 -27.060635 28.206675 5.038167 2.238610 8.566575 -9.212770 -7.697340 
108.246742 60.583958 76.935219 0.351563 -5.273432 62.333111 24.950571 -9.591059 -8.209488 -21.835938 12.373047 5.089984 51.553619 8.070152 2.616707 -59.580082 -7.578124 -5.478517 2.000000 -2.000000 0.000000 -82.968750 1.787109 12.509766 -52.912777 -1.966677 -2.072470 -9.683503 36.591320 -4.367767 -2.000000 2.000000 0.000000 85.175781 -21.220703 10.507813 52.381493 1.498234 -1.923779 -5.524323 -61.738087 5.990052 -1.219437 3.101303 5.581648 16.739550 -6.094869 -2.114052 -6.520477 6.297428 1.518273 -13.210836 -9.907129 -29.005833 22.901436 4.998061 2.186358 6.666258 -8.088055 -8.784724 
